<svg xmlns="http://www.w3.org/2000/svg" width="820" height="420" viewBox="0 0 820 420" font-family="Segoe UI, Helvetica, Arial, sans-serif">
  <rect x="0" y="0" width="820" height="420" fill="#0d1117"/>
  <text x="410" y="34" fill="#e6edf3" font-size="18" font-weight="700" text-anchor="middle">KV-cache pages: paged (measured peak) vs. naive per-sequence reservation</text>
  <text x="410" y="56" fill="#8b949e" font-size="12" text-anchor="middle">4 concurrent sequences · naive reserves max context (1024 tok = 64 pages) per sequence</text>

  <!-- axes -->
  <line x1="90" y1="340" x2="770" y2="340" stroke="#484f58" stroke-width="1.5"/>
  <line x1="90" y1="90" x2="90" y2="340" stroke="#484f58" stroke-width="1.5"/>
  <!-- y gridlines: 256 max -->
  <text x="80" y="344" fill="#8b949e" font-size="11" text-anchor="end">0</text>
  <line x1="90" y1="278" x2="770" y2="278" stroke="#21262d"/><text x="80" y="282" fill="#8b949e" font-size="11" text-anchor="end">64</text>
  <line x1="90" y1="215" x2="770" y2="215" stroke="#21262d"/><text x="80" y="219" fill="#8b949e" font-size="11" text-anchor="end">128</text>
  <line x1="90" y1="152" x2="770" y2="152" stroke="#21262d"/><text x="80" y="156" fill="#8b949e" font-size="11" text-anchor="end">192</text>
  <line x1="90" y1="90" x2="770" y2="90" stroke="#21262d"/><text x="80" y="94" fill="#8b949e" font-size="11" text-anchor="end">256</text>
  <text x="30" y="220" fill="#8b949e" font-size="12" text-anchor="middle" transform="rotate(-90 30 220)">pages allocated</text>

  <!-- Group 1: n=20 (peak 8), naive 256. scale: 256 px over 250 units -> 0.9766 px/unit -->
  <!-- bar heights: 340 - value*0.9766 -->
  <!-- n=20: peak 8 -> h=7.8 ; naive 256 -> h=250 -->
  <g>
    <rect x="150" y="332" width="60" height="8" fill="#2ea043"/>
    <rect x="215" y="90" width="60" height="250" fill="#484f58"/>
    <text x="180" y="360" fill="#c9d1d9" font-size="12" text-anchor="middle">n=20</text>
    <text x="180" y="326" fill="#7ee787" font-size="11" text-anchor="middle">8</text>
    <text x="245" y="84" fill="#8b949e" font-size="11" text-anchor="middle">256</text>
    <text x="212" y="378" fill="#3fb950" font-size="12" font-weight="700" text-anchor="middle">32x smaller</text>
  </g>
  <!-- n=50: peak 16 -> h=15.6 -->
  <g>
    <rect x="360" y="324" width="60" height="16" fill="#2ea043"/>
    <rect x="425" y="90" width="60" height="250" fill="#484f58"/>
    <text x="390" y="360" fill="#c9d1d9" font-size="12" text-anchor="middle">n=50</text>
    <text x="390" y="318" fill="#7ee787" font-size="11" text-anchor="middle">16</text>
    <text x="455" y="84" fill="#8b949e" font-size="11" text-anchor="middle">256</text>
    <text x="422" y="378" fill="#3fb950" font-size="12" font-weight="700" text-anchor="middle">16x smaller</text>
  </g>
  <!-- n=100: peak 28 -> h=27.3 -->
  <g>
    <rect x="570" y="313" width="60" height="27" fill="#2ea043"/>
    <rect x="635" y="90" width="60" height="250" fill="#484f58"/>
    <text x="600" y="360" fill="#c9d1d9" font-size="12" text-anchor="middle">n=100</text>
    <text x="600" y="307" fill="#7ee787" font-size="11" text-anchor="middle">28</text>
    <text x="665" y="84" fill="#8b949e" font-size="11" text-anchor="middle">256</text>
    <text x="632" y="378" fill="#3fb950" font-size="12" font-weight="700" text-anchor="middle">9.1x smaller</text>
  </g>

  <!-- legend -->
  <rect x="560" y="100" width="14" height="14" fill="#2ea043"/><text x="580" y="112" fill="#c9d1d9" font-size="12">paged (measured peak)</text>
  <rect x="560" y="122" width="14" height="14" fill="#484f58"/><text x="580" y="134" fill="#c9d1d9" font-size="12">naive (worst-case reservation)</text>

  <text x="410" y="406" fill="#8b949e" font-size="12" text-anchor="middle">Savings shrink as generated length approaches the model's max context — the real driver is sequence length, not concurrency.</text>
</svg>
